# xmcd
#
# Track frame offsets:
#	150
#	18247
#	38736
#	62184
#	74837
#	99464
#	118660
#	142666
#	158101
#	175981
#	192601
#	224399
#	244432
#
# Disc length: 3444 seconds
#
# Revision: 0
# Processed by: cddbd v1.5.2PL0 Copyright (c) Steve Scherf et al.
# Submitted via: EasyCDDAExtractor 9.0.0.1
#
DISCID=c20d720d
DTITLE=Swamp Farm Boogie
DYEAR=2002
DGENRE=Blues
TTITLE0=Fishing Song
TTITLE1=Cool Waters
TTITLE2=Shadow of Doubt
TTITLE3=A Lotta 'Bout Love
TTITLE4=Waterloo
TTITLE5=Back to Basics
TTITLE6=Swamp Farm Boogie
TTITLE7=Meednost
TTITLE8=Ballad of Bill Moody
TTITLE9=It Hurts Me Too
TTITLE10=Tremendous Walker
TTITLE11=Old Bear Bow
TTITLE12=Master of the Dreary Day
EXTD=
EXTT0=
EXTT1=
EXTT2=
EXTT3=
EXTT4=
EXTT5=
EXTT6=
EXTT7=
EXTT8=
EXTT9=
EXTT10=
EXTT11=
EXTT12=
PLAYORDER=
